<?xml version="1.0" encoding="UTF-8" standalone="no"?>
<!-- Generator: Adobe Illustrator 19.0.0, SVG Export Plug-In . SVG Version: 6.00 Build 0)  -->

<svg
   version="1.1"
   id="Layer_1"
   x="0px"
   y="0px"
   viewBox="0 0 250 199.99998"
   xml:space="preserve"
   width="250"
   height="200"
   xmlns="http://www.w3.org/2000/svg"
   xmlns:svg="http://www.w3.org/2000/svg"
   xmlns:rdf="http://www.w3.org/1999/02/22-rdf-syntax-ns#"
   xmlns:cc="http://creativecommons.org/ns#"
   xmlns:dc="http://purl.org/dc/elements/1.1/"><metadata
     id="metadata15"><rdf:RDF><cc:Work
         rdf:about=""><dc:format>image/svg+xml</dc:format><dc:type
           rdf:resource="http://purl.org/dc/dcmitype/StillImage" /></cc:Work></rdf:RDF></metadata><defs
     id="defs13" /><style
     type="text/css"
     id="style3">
	.st0{font-family:&quot;Arial Black&quot;, &quot;Arial Bold&quot;, Gadget, sans-serif;}
	.st1{font-size:118.4014px;}
	
		.st2{fill-rule:evenodd;clip-rule:evenodd;fill:none;stroke:#000000;stroke-width:18.9859;stroke-linecap:round;stroke-miterlimit:10;}
</style><flowRoot
     xml:space="preserve"
     id="flowRoot3336"
     style="font-style:normal;font-variant:normal;font-weight:900;font-stretch:normal;line-height:0.01%;font-family:Arial;-inkscape-font-specification:'Arial, Heavy';text-align:center;letter-spacing:0px;word-spacing:0px;writing-mode:lr-tb;text-anchor:middle;fill:#000000;fill-opacity:1;stroke:none;stroke-width:1px;stroke-linecap:butt;stroke-linejoin:miter;stroke-opacity:1"
     transform="translate(-29.532443,-38.638482)"><flowRegion
       id="flowRegion3338"><rect
         id="rect3340"
         width="142.58875"
         height="86.720642"
         x="17.510899"
         y="69.919037" /></flowRegion><flowPara
       id="flowPara3342"
       style="font-size:40px;line-height:1.25"> </flowPara></flowRoot><g
     transform="matrix(0.83153915,0,0,1.2025892,-29.532443,-38.638482)"
     style="font-style:normal;font-variant:normal;font-weight:900;font-stretch:normal;font-size:134.801px;line-height:125%;font-family:Arial;-inkscape-font-specification:'Arial, Heavy';text-align:center;letter-spacing:0px;word-spacing:0px;writing-mode:lr-tb;text-anchor:middle;fill:#000000;fill-opacity:1;stroke:none;stroke-width:1px;stroke-linecap:butt;stroke-linejoin:miter;stroke-opacity:1"
     id="text3344"><path
       style="font-weight:800;font-stretch:extra-condensed;font-size:125.681px;font-family:'Noto Sans';-inkscape-font-specification:'Noto Sans, Ultra-Bold Extra-Condensed';stroke-width:0.188025"
       d="m 144.81013,114.11552 q 0,16.99885 -9.94157,26.81767 -9.88019,9.75746 -27.79955,9.75746 -17.919366,0 -27.860929,-9.75746 -9.880196,-9.81882 -9.880196,-26.81767 0,-17.121582 9.941564,-26.879042 10.002931,-9.757461 27.799561,-9.757461 18.04209,0 27.86092,9.818828 9.8802,9.818828 9.8802,26.817675 z m -27.18588,16.75338 q 2.14786,-2.63881 3.19112,-6.32088 1.10461,-3.74342 1.10461,-10.30977 0,-6.07539 -1.10461,-10.18703 -1.10462,-4.111633 -3.06839,-6.566341 -1.96376,-2.516074 -4.72531,-3.559325 -2.76155,-1.04325 -5.95266,-1.04325 -3.19112,0 -5.7072,0.859147 -2.454705,0.859148 -4.725309,3.43659 -2.025133,2.393339 -3.252487,6.566339 -1.165986,4.173 -1.165986,10.49387 0,5.64583 1.043251,9.81883 1.04325,4.11164 3.068383,6.62771 1.963766,2.39334 4.663948,3.49796 2.76154,1.10462 6.2595,1.10462 3.00701,0 5.70719,-0.98189 2.76155,-1.04325 4.66395,-3.43658 z m 112.24147,17.67389 h -22.21509 v -34.1818 q 0,-4.173 -0.42958,-8.28464 -0.42957,-4.173 -1.47282,-6.136763 -1.22736,-2.270604 -3.6207,-3.313855 -2.33197,-1.04325 -6.56634,-1.04325 -3.00701,0 -6.13676,0.981882 -3.06839,0.981883 -6.68908,3.129752 V 148.54279 H 160.64299 V 79.626886 h 22.09236 v 7.609592 q 5.8913,-4.602576 11.29165,-7.057283 5.46172,-2.454707 12.08943,-2.454707 11.16892,0 17.42842,6.504974 6.32087,6.504973 6.32087,19.453548 z m 72.78207,-63.392813 q 0,-3.43659 -1.41146,-5.891297 -1.41146,-2.454707 -4.84805,-3.866164 -2.39334,-0.981883 -5.58445,-1.165986 -3.19112,-0.24547 -7.42549,-0.24547 h -8.53011 v 24.608438 h 7.24139 q 5.64582,0 9.45062,-0.552309 3.80479,-0.55231 6.38224,-2.516075 2.4547,-1.902398 3.55932,-4.173002 1.16599,-2.331972 1.16599,-6.198135 z m 36.75923,63.392813 h -28.78144 l -24.91527,-33.50676 h -10.86208 v 33.50676 H 251.40578 V 57.166317 h 39.52078 q 8.10053,0 13.93046,0.920515 5.82993,0.920515 10.92345,3.988899 5.15488,3.068383 8.1619,7.977797 3.06838,4.848047 3.06838,12.212168 0,10.125666 -4.72531,16.507905 -4.66394,6.382239 -13.37815,10.616609 z"
       id="text399"
       transform="scale(0.89930321,1.111972)"
       aria-label="onR" /></g></svg>
