<?xml version="1.0" encoding="UTF-8" standalone="no"?>
<!-- Generator: Adobe Illustrator 19.0.0, SVG Export Plug-In . SVG Version: 6.00 Build 0)  -->

<svg
   version="1.1"
   id="Layer_1"
   x="0px"
   y="0px"
   viewBox="0 0 250 199.99998"
   xml:space="preserve"
   width="250"
   height="200"
   xmlns="http://www.w3.org/2000/svg"
   xmlns:svg="http://www.w3.org/2000/svg"
   xmlns:rdf="http://www.w3.org/1999/02/22-rdf-syntax-ns#"
   xmlns:cc="http://creativecommons.org/ns#"
   xmlns:dc="http://purl.org/dc/elements/1.1/"><metadata
     id="metadata15"><rdf:RDF><cc:Work
         rdf:about=""><dc:format>image/svg+xml</dc:format><dc:type
           rdf:resource="http://purl.org/dc/dcmitype/StillImage" /></cc:Work></rdf:RDF></metadata><defs
     id="defs13" /><style
     type="text/css"
     id="style3">
	.st0{font-family:&quot;Arial Black&quot;, &quot;Arial Bold&quot;, Gadget, sans-serif;}
	.st1{font-size:118.4014px;}
	
		.st2{fill-rule:evenodd;clip-rule:evenodd;fill:none;stroke:#000000;stroke-width:18.9859;stroke-linecap:round;stroke-miterlimit:10;}
</style><flowRoot
     xml:space="preserve"
     id="flowRoot3336"
     style="font-style:normal;font-variant:normal;font-weight:900;font-stretch:normal;line-height:0.01%;font-family:Arial;-inkscape-font-specification:'Arial, Heavy';text-align:center;letter-spacing:0px;word-spacing:0px;writing-mode:lr-tb;text-anchor:middle;fill:#000000;fill-opacity:1;stroke:none;stroke-width:1px;stroke-linecap:butt;stroke-linejoin:miter;stroke-opacity:1"
     transform="translate(-29.532443,-38.638482)"><flowRegion
       id="flowRegion3338"><rect
         id="rect3340"
         width="142.58875"
         height="86.720642"
         x="17.510899"
         y="69.919037" /></flowRegion><flowPara
       id="flowPara3342"
       style="font-size:40px;line-height:1.25"> </flowPara></flowRoot><g
     transform="matrix(0.83153915,0,0,1.2025892,-29.532443,-38.638482)"
     style="font-style:normal;font-variant:normal;font-weight:900;font-stretch:normal;font-size:134.801px;line-height:125%;font-family:Arial;-inkscape-font-specification:'Arial, Heavy';text-align:center;letter-spacing:0px;word-spacing:0px;writing-mode:lr-tb;text-anchor:middle;fill:#000000;fill-opacity:1;stroke:none;stroke-width:1px;stroke-linecap:butt;stroke-linejoin:miter;stroke-opacity:1"
     id="text3344"><path
       style="font-weight:800;font-stretch:extra-condensed;font-size:125.681px;font-family:'Noto Sans';-inkscape-font-specification:'Noto Sans, Ultra-Bold Extra-Condensed';stroke-width:0.188025"
       d="m 145.63859,102.9466 q 0,12.76448 -5.82993,22.89015 -5.82993,10.06429 -14.72824,15.46465 -6.68908,4.05027 -14.66688,5.64583 -7.97779,1.59556 -18.90124,1.59556 H 59.29427 V 57.166317 h 33.138545 q 11.168915,0 19.269455,1.902398 8.10053,1.84103 13.62362,5.27762 9.45062,5.768561 14.85098,15.587389 5.46172,9.757461 5.46172,23.012876 z m -24.36297,-0.1841 q 0,-9.021049 -3.31385,-15.403287 -3.25249,-6.443606 -10.37114,-10.064299 -3.62069,-1.779662 -7.42549,-2.393339 Q 96.421714,74.22653 88.812122,74.22653 h -5.952664 v 57.19467 h 5.952664 q 8.407372,0 12.334898,-0.73641 3.92754,-0.79778 7.67096,-2.82291 6.44361,-3.68206 9.45063,-9.81883 3.00701,-6.19813 3.00701,-15.28055 z m 125.43553,45.78029 H 224.00511 L 185.22074,85.825021 V 148.54279 H 163.61932 V 57.166317 h 28.16776 l 33.32265,52.346623 V 57.166317 h 21.60142 z m 106.16609,0 h -27.24725 l -19.69903,-30.07017 -20.06723,30.07017 h -26.01989 l 32.40213,-46.02576 -31.72709,-45.350713 h 27.18588 l 19.02398,28.474601 19.57629,-28.474601 h 26.08126 L 320.4751,101.59651 Z"
       id="text399"
       transform="scale(0.89930321,1.111972)"
       aria-label="DNX" /></g></svg>
