<?xml version="1.0" encoding="UTF-8" standalone="no"?>
<!-- Generator: Adobe Illustrator 19.0.0, SVG Export Plug-In . SVG Version: 6.00 Build 0)  -->

<svg
   version="1.1"
   id="Layer_1"
   x="0px"
   y="0px"
   viewBox="0 0 250 249.99999"
   xml:space="preserve"
   width="250"
   height="250"
   xmlns="http://www.w3.org/2000/svg"
   xmlns:svg="http://www.w3.org/2000/svg"
   xmlns:rdf="http://www.w3.org/1999/02/22-rdf-syntax-ns#"
   xmlns:cc="http://creativecommons.org/ns#"
   xmlns:dc="http://purl.org/dc/elements/1.1/"><metadata
     id="metadata4205"><rdf:RDF><cc:Work
         rdf:about=""><dc:format>image/svg+xml</dc:format><dc:type
           rdf:resource="http://purl.org/dc/dcmitype/StillImage" /></cc:Work></rdf:RDF></metadata><defs
     id="defs4203" /><style
     type="text/css"
     id="style4196">
	.st0{fill-rule:evenodd;clip-rule:evenodd;}
</style><ellipse
     style="fill:#ffffff;stroke:#ff6600;stroke-width:24.5292;stroke-dasharray:none;paint-order:normal"
     id="path1890"
     cx="125"
     cy="124.84882"
     rx="112.73537"
     ry="112.5842" /><path
     d="M 73.102538,165.72507 H 17.633648 V 151.2161 H 35.156014 V 107.29858 H 17.633648 V 93.738278 q 4.017868,0 7.700913,-0.44643 3.683045,-0.502233 6.138408,-1.674111 2.901793,-1.395093 4.35269,-3.627241 1.450896,-2.232149 1.674111,-5.580372 H 55.970799 V 151.2161 h 17.131739 z m 78.348412,-38.95099 q 2.73438,2.34375 4.35269,5.46876 1.61831,3.12501 1.61831,8.31475 0,5.85939 -2.34376,10.93753 -2.28795,5.07814 -7.08707,8.70538 -4.68751,3.51563 -11.04913,5.41296 -6.30582,1.84152 -15.34602,1.84152 -10.32369,0 -17.74559,-1.61831 -7.366085,-1.6183 -11.997794,-3.62724 v -18.24781 h 2.176345 q 4.79912,2.90179 11.439759,5.02233 6.69645,2.12054 12.22102,2.12054 3.23661,0 7.03126,-0.50223 3.79466,-0.55804 6.41743,-2.34375 2.06474,-1.3951 3.29242,-3.34823 1.22768,-2.00893 1.22768,-5.74778 0,-3.62724 -1.67411,-5.58037 -1.67411,-2.00893 -4.40849,-2.84599 -2.73439,-0.89286 -6.58484,-0.94866 -3.85046,-0.11161 -7.14288,-0.11161 h -4.5759 v -14.84379 h 4.74331 q 4.35269,0 7.70092,-0.27902 3.34822,-0.27902 5.69197,-1.28348 2.45537,-1.06027 3.68305,-2.79019 1.22768,-1.78572 1.22768,-5.18974 0,-2.51117 -1.28348,-4.01787 -1.28349,-1.562505 -3.23662,-2.455364 -2.17634,-1.004467 -5.13394,-1.339289 -2.9576,-0.334822 -5.07814,-0.334822 -5.24555,0 -11.38396,1.841522 -6.1384,1.785723 -11.886187,5.189743 H 94.252146 V 86.148973 q 4.575905,-1.841522 12.444224,-3.515634 7.86833,-1.729915 15.95987,-1.729915 7.86832,0 13.78351,1.395093 5.9152,1.339289 9.76565,3.627241 4.57591,2.734382 6.80806,6.640642 2.23214,3.90626 2.23214,9.15181 0,6.91966 -4.29688,12.38842 -4.29689,5.41296 -11.32816,6.91966 v 0.78126 q 2.84599,0.39062 6.02681,1.5625 3.18081,1.17188 5.80358,3.40403 z m 88.83951,-2.62278 q 0,10.4911 -1.89732,18.80585 -1.89733,8.25895 -5.9152,13.5603 -4.12947,5.41296 -10.6027,8.20315 -6.47323,2.73438 -15.95986,2.73438 -9.31922,0 -15.90406,-2.79018 -6.58484,-2.79019 -10.65851,-8.25895 -4.12948,-5.46877 -5.971,-13.5603 -1.84152,-8.14735 -1.84152,-18.63844 0,-10.82593 1.89732,-18.80586 1.89733,-7.979927 6.02681,-13.504494 4.12947,-5.468764 10.71431,-8.203146 6.58484,-2.734382 15.73665,-2.734382 9.54243,0 16.01566,2.845989 6.47323,2.790186 10.60271,8.370557 4.07367,5.468764 5.91519,13.504496 1.84152,7.97993 1.84152,18.47103 z m -21.59603,0 q 0,-15.067 -2.9576,-21.42862 -2.9576,-6.417431 -9.82145,-6.417431 -6.86386,0 -9.82146,6.417431 -2.95759,6.36162 -2.95759,21.54023 0,14.78798 3.0134,21.31702 3.0134,6.52903 9.76565,6.52903 6.75224,0 9.76565,-6.52903 3.0134,-6.52904 3.0134,-21.42863 z"
     id="text1198"
     style="font-weight:bold;font-size:114.286px;line-height:125%;font-family:Aerial;-inkscape-font-specification:'Aerial, Bold';font-variant-position:super;text-align:center;letter-spacing:0px;word-spacing:0px;text-anchor:middle;stroke-width:10.8401"
     aria-label="130" /></svg>
