<?xml version="1.0" encoding="UTF-8" standalone="no"?>
<!-- Generator: Adobe Illustrator 19.0.0, SVG Export Plug-In . SVG Version: 6.00 Build 0)  -->

<svg
   version="1.1"
   id="Layer_1"
   x="0px"
   y="0px"
   viewBox="0 0 250 250"
   style="enable-background:new 0 0 250 250;"
   xml:space="preserve"
   xmlns="http://www.w3.org/2000/svg"
   xmlns:svg="http://www.w3.org/2000/svg"
   xmlns:rdf="http://www.w3.org/1999/02/22-rdf-syntax-ns#"
   xmlns:cc="http://creativecommons.org/ns#"
   xmlns:dc="http://purl.org/dc/elements/1.1/"><metadata
     id="metadata4205"><rdf:RDF><cc:Work
         rdf:about=""><dc:format>image/svg+xml</dc:format><dc:type
           rdf:resource="http://purl.org/dc/dcmitype/StillImage" /></cc:Work></rdf:RDF></metadata><defs
     id="defs4203" /><style
     type="text/css"
     id="style4196">
	.st0{fill-rule:evenodd;clip-rule:evenodd;}
</style><ellipse
     style="fill:#ffffff;stroke:#999999;stroke-width:24.5292;stroke-dasharray:none;paint-order:normal"
     id="path1890"
     cx="125"
     cy="124.84882"
     rx="112.73538"
     ry="112.58421" /><path
     style="fill:#ff6600;stroke:#999999;stroke-width:26.4147;stroke-dasharray:none"
     d="M 43.513858,205.29801 204.41223,44.399626"
     id="path1282" /><path
     d="m 118.86159,137.4326 q 0,6.41743 -2.34376,12.0536 -2.34375,5.63618 -6.58483,9.48663 -4.5201,4.12948 -10.491102,6.30582 -5.915193,2.17635 -13.895124,2.17635 -7.477698,0 -13.67191,-2.00894 -6.138408,-2.06473 -10.546901,-6.25001 -5.078138,-4.79912 -7.756716,-12.38843 -2.678578,-7.5893 -2.678578,-18.1362 0,-10.93753 2.511167,-19.41969 2.511167,-8.48217 8.203145,-15.011203 5.468764,-6.250016 14.174143,-9.709846 8.761183,-3.45983 20.814785,-3.45983 4.073671,0 8.928591,0.558037 4.85493,0.558037 6.30582,0.837055 v 16.350488 h -2.12054 q -1.5067,-0.725448 -5.13394,-1.618308 -3.57144,-0.948663 -8.147342,-0.948663 -10.714313,0 -16.68531,5.24555 -5.970997,5.24555 -7.198679,14.62057 4.296886,-2.56697 9.040201,-4.12947 4.79912,-1.61831 10.323687,-1.61831 4.854923,0 8.984393,1.11607 4.18528,1.11608 7.75672,3.57144 4.63171,3.23662 7.42189,8.70538 2.79019,5.46876 2.79019,13.67191 z m -25.390689,12.55584 q 1.729915,-1.89733 2.734382,-4.4643 1.060271,-2.62278 1.060271,-7.08707 0,-4.07367 -1.171878,-6.64064 -1.171878,-2.62278 -3.236616,-4.18528 -2.008933,-1.56251 -4.743315,-2.12054 -2.734382,-0.61385 -5.636175,-0.61385 -2.455364,0 -5.133942,0.55804 -2.678578,0.55804 -4.910726,1.39509 0,0.55804 -0.0558,1.84153 -0.0558,1.28348 -0.0558,3.23661 0,6.86386 1.339289,11.32816 1.395093,4.40849 3.683045,6.75225 1.562504,1.72991 3.683045,2.56697 2.120541,0.78125 4.575905,0.78125 1.841522,0 4.073671,-0.83706 2.232148,-0.83705 3.794652,-2.51116 z M 198.43768,137.60001 q 0,6.47323 -2.45536,12.0536 -2.39956,5.52457 -7.03127,9.48663 -5.13394,4.24109 -11.83038,6.30582 -6.64065,2.00894 -15.17861,2.00894 -9.98887,-0.0558 -16.90853,-1.61831 -6.86385,-1.5067 -11.21654,-3.40403 v -18.35942 h 2.34375 q 5.07814,3.0134 10.93753,5.02234 5.85939,2.00893 11.66298,2.00893 3.51563,0 7.5893,-0.78125 4.12947,-0.83706 6.52903,-2.9576 1.89733,-1.72991 2.84599,-3.51563 1.00447,-1.78572 1.00447,-5.52457 0,-2.90179 -1.33929,-4.96653 -1.28348,-2.12054 -3.34822,-3.40403 -3.0134,-1.84152 -7.25448,-2.39956 -4.24109,-0.61384 -7.70092,-0.61384 -5.02233,0 -9.65404,0.89286 -4.5759,0.83706 -8.03573,1.67411 h -2.45537 V 82.633355 h 59.09614 v 15.904058 h -38.951 v 13.560297 q 1.72992,-0.1116 4.35269,-0.16741 2.67858,-0.1116 4.68752,-0.1116 6.86385,0 12.22101,1.33929 5.41296,1.28348 9.31922,3.62724 5.07814,3.0692 7.92413,8.14734 2.84598,5.02233 2.84598,12.66744 z"
     id="text1198"
     style="font-weight:bold;font-size:114.286px;line-height:125%;font-family:Aerial;-inkscape-font-specification:'Aerial, Bold';font-variant-position:super;text-align:center;letter-spacing:0px;word-spacing:0px;text-anchor:middle;stroke-width:10.8401"
     aria-label="65" /></svg>
